<mxfile host="app.diagrams.net" modified="2023-04-25T07:24:13.846Z" agent="Mozilla/5.0 (Windows NT 10.0; Win64; x64) AppleWebKit/537.36 (KHTML, like Gecko) Chrome/112.0.0.0 Safari/537.36" etag="WgiektL6ay45QWEoj0Bu" version="21.2.1" type="device">
  <diagram name="第 1 页" id="E8oEpTzGUvyuNaN51fWy">
    <mxGraphModel dx="792" dy="514" grid="1" gridSize="10" guides="1" tooltips="1" connect="1" arrows="1" fold="1" page="1" pageScale="1" pageWidth="827" pageHeight="1169" math="0" shadow="0">
      <root>
        <mxCell id="0" />
        <mxCell id="1" parent="0" />
        <mxCell id="lFroKfWNAPlT9c4xP5ak-36" value="" style="ellipse;whiteSpace=wrap;html=1;aspect=fixed;strokeColor=none;fillColor=#7a7374;" parent="1" vertex="1">
          <mxGeometry x="270" y="80" width="10" height="10" as="geometry" />
        </mxCell>
        <mxCell id="lFroKfWNAPlT9c4xP5ak-37" value="" style="ellipse;whiteSpace=wrap;html=1;aspect=fixed;strokeColor=none;fillColor=#7a7374;" parent="1" vertex="1">
          <mxGeometry x="270" y="130" width="10" height="10" as="geometry" />
        </mxCell>
        <mxCell id="lFroKfWNAPlT9c4xP5ak-38" value="" style="ellipse;whiteSpace=wrap;html=1;aspect=fixed;strokeColor=none;fillColor=#7a7374;" parent="1" vertex="1">
          <mxGeometry x="270" y="180" width="10" height="10" as="geometry" />
        </mxCell>
        <mxCell id="lFroKfWNAPlT9c4xP5ak-39" value="" style="ellipse;whiteSpace=wrap;html=1;aspect=fixed;strokeColor=none;fillColor=#7a7374;" parent="1" vertex="1">
          <mxGeometry x="270" y="230" width="10" height="10" as="geometry" />
        </mxCell>
        <mxCell id="lFroKfWNAPlT9c4xP5ak-40" value="" style="ellipse;whiteSpace=wrap;html=1;aspect=fixed;strokeColor=none;fillColor=#7a7374;" parent="1" vertex="1">
          <mxGeometry x="270" y="280" width="10" height="10" as="geometry" />
        </mxCell>
        <mxCell id="lFroKfWNAPlT9c4xP5ak-41" value="" style="ellipse;whiteSpace=wrap;html=1;aspect=fixed;strokeColor=none;fillColor=#7a7374;" parent="1" vertex="1">
          <mxGeometry x="270" y="330" width="10" height="10" as="geometry" />
        </mxCell>
        <mxCell id="lFroKfWNAPlT9c4xP5ak-42" value="" style="ellipse;whiteSpace=wrap;html=1;aspect=fixed;strokeColor=none;fillColor=#7a7374;" parent="1" vertex="1">
          <mxGeometry x="270" y="380" width="10" height="10" as="geometry" />
        </mxCell>
        <mxCell id="lFroKfWNAPlT9c4xP5ak-43" value="" style="ellipse;whiteSpace=wrap;html=1;aspect=fixed;strokeColor=none;fillColor=#7a7374;" parent="1" vertex="1">
          <mxGeometry x="270" y="430" width="10" height="10" as="geometry" />
        </mxCell>
        <mxCell id="lFroKfWNAPlT9c4xP5ak-44" value="" style="ellipse;whiteSpace=wrap;html=1;aspect=fixed;strokeColor=none;fillColor=#7a7374;" parent="1" vertex="1">
          <mxGeometry x="270" y="480" width="10" height="10" as="geometry" />
        </mxCell>
        <mxCell id="lFroKfWNAPlT9c4xP5ak-45" value="" style="ellipse;whiteSpace=wrap;html=1;aspect=fixed;strokeColor=none;fillColor=#7a7374;" parent="1" vertex="1">
          <mxGeometry x="270" y="530" width="10" height="10" as="geometry" />
        </mxCell>
        <mxCell id="lFroKfWNAPlT9c4xP5ak-46" value="" style="ellipse;whiteSpace=wrap;html=1;aspect=fixed;strokeColor=none;fillColor=#7a7374;" parent="1" vertex="1">
          <mxGeometry x="270" y="584.5" width="10" height="10" as="geometry" />
        </mxCell>
        <mxCell id="lFroKfWNAPlT9c4xP5ak-47" value="" style="ellipse;whiteSpace=wrap;html=1;aspect=fixed;strokeColor=none;fillColor=#7a7374;" parent="1" vertex="1">
          <mxGeometry x="270" y="634.5" width="10" height="10" as="geometry" />
        </mxCell>
        <mxCell id="lFroKfWNAPlT9c4xP5ak-48" value="" style="ellipse;whiteSpace=wrap;html=1;aspect=fixed;strokeColor=none;fillColor=#7a7374;" parent="1" vertex="1">
          <mxGeometry x="270" y="684.5" width="10" height="10" as="geometry" />
        </mxCell>
        <mxCell id="lFroKfWNAPlT9c4xP5ak-49" value="" style="ellipse;whiteSpace=wrap;html=1;aspect=fixed;strokeColor=none;fillColor=#7a7374;" parent="1" vertex="1">
          <mxGeometry x="270" y="734.5" width="10" height="10" as="geometry" />
        </mxCell>
        <mxCell id="lFroKfWNAPlT9c4xP5ak-50" value="" style="ellipse;whiteSpace=wrap;html=1;aspect=fixed;strokeColor=none;fillColor=#7a7374;" parent="1" vertex="1">
          <mxGeometry x="270" y="784.5" width="10" height="10" as="geometry" />
        </mxCell>
        <mxCell id="lFroKfWNAPlT9c4xP5ak-51" value="" style="ellipse;whiteSpace=wrap;html=1;aspect=fixed;strokeColor=none;fillColor=#7a7374;" parent="1" vertex="1">
          <mxGeometry x="270" y="834.5" width="10" height="10" as="geometry" />
        </mxCell>
        <mxCell id="lFroKfWNAPlT9c4xP5ak-52" value="" style="ellipse;whiteSpace=wrap;html=1;aspect=fixed;strokeColor=none;fillColor=#7a7374;" parent="1" vertex="1">
          <mxGeometry x="270" y="884.5" width="10" height="10" as="geometry" />
        </mxCell>
        <mxCell id="lFroKfWNAPlT9c4xP5ak-53" value="" style="ellipse;whiteSpace=wrap;html=1;aspect=fixed;strokeColor=none;fillColor=#7a7374;" parent="1" vertex="1">
          <mxGeometry x="270" y="934.5" width="10" height="10" as="geometry" />
        </mxCell>
        <mxCell id="lFroKfWNAPlT9c4xP5ak-54" value="" style="ellipse;whiteSpace=wrap;html=1;aspect=fixed;strokeColor=none;fillColor=#7a7374;" parent="1" vertex="1">
          <mxGeometry x="270" y="984.5" width="10" height="10" as="geometry" />
        </mxCell>
        <mxCell id="lFroKfWNAPlT9c4xP5ak-55" value="" style="ellipse;whiteSpace=wrap;html=1;aspect=fixed;strokeColor=none;fillColor=#7a7374;" parent="1" vertex="1">
          <mxGeometry x="270" y="1034.5" width="10" height="10" as="geometry" />
        </mxCell>
        <mxCell id="lFroKfWNAPlT9c4xP5ak-58" value="" style="endArrow=none;html=1;rounded=1;entryX=0.5;entryY=1;entryDx=0;entryDy=0;exitX=0.5;exitY=0;exitDx=0;exitDy=0;strokeColor=#7a7374;strokeWidth=3;opacity=75;" parent="1" source="lFroKfWNAPlT9c4xP5ak-37" target="lFroKfWNAPlT9c4xP5ak-36" edge="1">
          <mxGeometry width="50" height="50" relative="1" as="geometry">
            <mxPoint x="290" y="130" as="sourcePoint" />
            <mxPoint x="350" y="100" as="targetPoint" />
          </mxGeometry>
        </mxCell>
        <mxCell id="lFroKfWNAPlT9c4xP5ak-59" value="" style="endArrow=none;html=1;rounded=1;entryX=0.5;entryY=1;entryDx=0;entryDy=0;exitX=0.5;exitY=0;exitDx=0;exitDy=0;strokeColor=#7a7374;strokeWidth=3;opacity=75;dashed=1;dashPattern=1 4;" parent="1" edge="1">
          <mxGeometry width="50" height="50" relative="1" as="geometry">
            <mxPoint x="274.74" y="80" as="sourcePoint" />
            <mxPoint x="274.74" y="40" as="targetPoint" />
          </mxGeometry>
        </mxCell>
        <mxCell id="lFroKfWNAPlT9c4xP5ak-60" value="" style="endArrow=none;html=1;rounded=1;entryX=0.5;entryY=1;entryDx=0;entryDy=0;exitX=0.5;exitY=0;exitDx=0;exitDy=0;strokeColor=#7a7374;strokeWidth=3;opacity=75;" parent="1" edge="1">
          <mxGeometry width="50" height="50" relative="1" as="geometry">
            <mxPoint x="274.74" y="180" as="sourcePoint" />
            <mxPoint x="274.74" y="140" as="targetPoint" />
          </mxGeometry>
        </mxCell>
        <mxCell id="lFroKfWNAPlT9c4xP5ak-61" value="" style="endArrow=none;html=1;rounded=1;entryX=0.5;entryY=1;entryDx=0;entryDy=0;exitX=0.5;exitY=0;exitDx=0;exitDy=0;strokeColor=#7a7374;strokeWidth=3;opacity=75;" parent="1" edge="1">
          <mxGeometry width="50" height="50" relative="1" as="geometry">
            <mxPoint x="274.74" y="230" as="sourcePoint" />
            <mxPoint x="274.74" y="190" as="targetPoint" />
          </mxGeometry>
        </mxCell>
        <mxCell id="lFroKfWNAPlT9c4xP5ak-62" value="" style="endArrow=none;html=1;rounded=1;entryX=0.5;entryY=1;entryDx=0;entryDy=0;exitX=0.5;exitY=0;exitDx=0;exitDy=0;strokeColor=#7a7374;strokeWidth=3;opacity=75;" parent="1" edge="1">
          <mxGeometry width="50" height="50" relative="1" as="geometry">
            <mxPoint x="274.74" y="280" as="sourcePoint" />
            <mxPoint x="274.74" y="240" as="targetPoint" />
          </mxGeometry>
        </mxCell>
        <mxCell id="lFroKfWNAPlT9c4xP5ak-63" value="" style="endArrow=none;html=1;rounded=1;entryX=0.5;entryY=1;entryDx=0;entryDy=0;exitX=0.5;exitY=0;exitDx=0;exitDy=0;strokeColor=#7a7374;strokeWidth=3;opacity=75;" parent="1" edge="1">
          <mxGeometry width="50" height="50" relative="1" as="geometry">
            <mxPoint x="274.74" y="330" as="sourcePoint" />
            <mxPoint x="274.74" y="290" as="targetPoint" />
          </mxGeometry>
        </mxCell>
        <mxCell id="lFroKfWNAPlT9c4xP5ak-64" value="" style="endArrow=none;html=1;rounded=1;entryX=0.5;entryY=1;entryDx=0;entryDy=0;exitX=0.5;exitY=0;exitDx=0;exitDy=0;strokeColor=#7a7374;strokeWidth=3;opacity=75;" parent="1" edge="1">
          <mxGeometry width="50" height="50" relative="1" as="geometry">
            <mxPoint x="274.74" y="380" as="sourcePoint" />
            <mxPoint x="274.74" y="340" as="targetPoint" />
          </mxGeometry>
        </mxCell>
        <mxCell id="lFroKfWNAPlT9c4xP5ak-65" value="" style="endArrow=none;html=1;rounded=1;entryX=0.5;entryY=1;entryDx=0;entryDy=0;exitX=0.5;exitY=0;exitDx=0;exitDy=0;strokeColor=#7a7374;strokeWidth=3;opacity=75;" parent="1" edge="1">
          <mxGeometry width="50" height="50" relative="1" as="geometry">
            <mxPoint x="274.74" y="430" as="sourcePoint" />
            <mxPoint x="274.74" y="390" as="targetPoint" />
          </mxGeometry>
        </mxCell>
        <mxCell id="lFroKfWNAPlT9c4xP5ak-66" value="" style="endArrow=none;html=1;rounded=1;entryX=0.5;entryY=1;entryDx=0;entryDy=0;exitX=0.5;exitY=0;exitDx=0;exitDy=0;strokeColor=#7a7374;strokeWidth=3;opacity=75;" parent="1" edge="1">
          <mxGeometry width="50" height="50" relative="1" as="geometry">
            <mxPoint x="274.74" y="480" as="sourcePoint" />
            <mxPoint x="274.74" y="440" as="targetPoint" />
          </mxGeometry>
        </mxCell>
        <mxCell id="lFroKfWNAPlT9c4xP5ak-67" value="" style="endArrow=none;html=1;rounded=1;entryX=0.5;entryY=1;entryDx=0;entryDy=0;exitX=0.5;exitY=0;exitDx=0;exitDy=0;strokeColor=#7a7374;strokeWidth=3;opacity=75;" parent="1" edge="1">
          <mxGeometry width="50" height="50" relative="1" as="geometry">
            <mxPoint x="274.74" y="530" as="sourcePoint" />
            <mxPoint x="274.74" y="490" as="targetPoint" />
          </mxGeometry>
        </mxCell>
        <mxCell id="lFroKfWNAPlT9c4xP5ak-69" value="" style="endArrow=none;html=1;rounded=1;entryX=0.5;entryY=1;entryDx=0;entryDy=0;strokeColor=#7a7374;strokeWidth=3;opacity=75;exitX=0.5;exitY=0;exitDx=0;exitDy=0;" parent="1" source="lFroKfWNAPlT9c4xP5ak-46" edge="1">
          <mxGeometry width="50" height="50" relative="1" as="geometry">
            <mxPoint x="275" y="580" as="sourcePoint" />
            <mxPoint x="274.74" y="540" as="targetPoint" />
          </mxGeometry>
        </mxCell>
        <mxCell id="lFroKfWNAPlT9c4xP5ak-70" value="" style="endArrow=none;html=1;rounded=1;entryX=0.5;entryY=1;entryDx=0;entryDy=0;strokeColor=#7a7374;strokeWidth=3;opacity=75;exitX=0.5;exitY=0;exitDx=0;exitDy=0;" parent="1" edge="1">
          <mxGeometry width="50" height="50" relative="1" as="geometry">
            <mxPoint x="275" y="639.5" as="sourcePoint" />
            <mxPoint x="274.74" y="594.5" as="targetPoint" />
          </mxGeometry>
        </mxCell>
        <mxCell id="lFroKfWNAPlT9c4xP5ak-71" value="" style="endArrow=none;html=1;rounded=1;entryX=0.5;entryY=1;entryDx=0;entryDy=0;exitX=0.5;exitY=0;exitDx=0;exitDy=0;strokeColor=#7a7374;strokeWidth=3;opacity=75;" parent="1" edge="1">
          <mxGeometry width="50" height="50" relative="1" as="geometry">
            <mxPoint x="274.74" y="684.5" as="sourcePoint" />
            <mxPoint x="274.74" y="644.5" as="targetPoint" />
          </mxGeometry>
        </mxCell>
        <mxCell id="lFroKfWNAPlT9c4xP5ak-72" value="" style="endArrow=none;html=1;rounded=1;entryX=0.5;entryY=1;entryDx=0;entryDy=0;exitX=0.5;exitY=0;exitDx=0;exitDy=0;strokeColor=#7a7374;strokeWidth=3;opacity=75;" parent="1" edge="1">
          <mxGeometry width="50" height="50" relative="1" as="geometry">
            <mxPoint x="274.74" y="734.5" as="sourcePoint" />
            <mxPoint x="274.74" y="694.5" as="targetPoint" />
          </mxGeometry>
        </mxCell>
        <mxCell id="lFroKfWNAPlT9c4xP5ak-73" value="" style="endArrow=none;html=1;rounded=1;entryX=0.5;entryY=1;entryDx=0;entryDy=0;exitX=0.5;exitY=0;exitDx=0;exitDy=0;strokeColor=#7a7374;strokeWidth=3;opacity=75;" parent="1" edge="1">
          <mxGeometry width="50" height="50" relative="1" as="geometry">
            <mxPoint x="274.74" y="784.5" as="sourcePoint" />
            <mxPoint x="274.74" y="744.5" as="targetPoint" />
          </mxGeometry>
        </mxCell>
        <mxCell id="lFroKfWNAPlT9c4xP5ak-74" value="" style="endArrow=none;html=1;rounded=1;entryX=0.5;entryY=1;entryDx=0;entryDy=0;exitX=0.5;exitY=0;exitDx=0;exitDy=0;strokeColor=#7a7374;strokeWidth=3;opacity=75;" parent="1" edge="1">
          <mxGeometry width="50" height="50" relative="1" as="geometry">
            <mxPoint x="274.74" y="834.5" as="sourcePoint" />
            <mxPoint x="274.74" y="794.5" as="targetPoint" />
          </mxGeometry>
        </mxCell>
        <mxCell id="lFroKfWNAPlT9c4xP5ak-75" value="" style="endArrow=none;html=1;rounded=1;entryX=0.5;entryY=1;entryDx=0;entryDy=0;exitX=0.5;exitY=0;exitDx=0;exitDy=0;strokeColor=#7a7374;strokeWidth=3;opacity=75;" parent="1" edge="1">
          <mxGeometry width="50" height="50" relative="1" as="geometry">
            <mxPoint x="274.74" y="884.5" as="sourcePoint" />
            <mxPoint x="274.74" y="844.5" as="targetPoint" />
          </mxGeometry>
        </mxCell>
        <mxCell id="lFroKfWNAPlT9c4xP5ak-76" value="" style="endArrow=none;html=1;rounded=1;entryX=0.5;entryY=1;entryDx=0;entryDy=0;exitX=0.5;exitY=0;exitDx=0;exitDy=0;strokeColor=#7a7374;strokeWidth=3;opacity=75;" parent="1" edge="1">
          <mxGeometry width="50" height="50" relative="1" as="geometry">
            <mxPoint x="274.74" y="934.5" as="sourcePoint" />
            <mxPoint x="274.74" y="894.5" as="targetPoint" />
          </mxGeometry>
        </mxCell>
        <mxCell id="lFroKfWNAPlT9c4xP5ak-77" value="" style="endArrow=none;html=1;rounded=1;entryX=0.5;entryY=1;entryDx=0;entryDy=0;exitX=0.5;exitY=0;exitDx=0;exitDy=0;strokeColor=#7a7374;strokeWidth=3;opacity=75;" parent="1" edge="1">
          <mxGeometry width="50" height="50" relative="1" as="geometry">
            <mxPoint x="274.74" y="984.5" as="sourcePoint" />
            <mxPoint x="274.74" y="944.5" as="targetPoint" />
          </mxGeometry>
        </mxCell>
        <mxCell id="lFroKfWNAPlT9c4xP5ak-78" value="" style="endArrow=none;html=1;rounded=1;entryX=0.5;entryY=1;entryDx=0;entryDy=0;exitX=0.5;exitY=0;exitDx=0;exitDy=0;strokeColor=#7a7374;strokeWidth=3;opacity=75;" parent="1" edge="1">
          <mxGeometry width="50" height="50" relative="1" as="geometry">
            <mxPoint x="274.74" y="1034.5" as="sourcePoint" />
            <mxPoint x="274.74" y="994.5" as="targetPoint" />
          </mxGeometry>
        </mxCell>
        <mxCell id="lFroKfWNAPlT9c4xP5ak-79" value="" style="endArrow=none;html=1;rounded=1;entryX=0.5;entryY=1;entryDx=0;entryDy=0;exitX=0.5;exitY=0;exitDx=0;exitDy=0;strokeColor=#7a7374;strokeWidth=3;opacity=75;dashed=1;" parent="1" edge="1">
          <mxGeometry width="50" height="50" relative="1" as="geometry">
            <mxPoint x="274.74" y="1084.5" as="sourcePoint" />
            <mxPoint x="274.74" y="1044.5" as="targetPoint" />
          </mxGeometry>
        </mxCell>
        <mxCell id="lFroKfWNAPlT9c4xP5ak-86" value="&lt;span style=&quot;font-size: 14px;&quot;&gt;&lt;i&gt;1900年&lt;/i&gt;&lt;/span&gt;" style="text;strokeColor=none;fillColor=none;html=1;fontSize=7;fontStyle=0;verticalAlign=middle;align=center;fontFamily=Comic Sans MS;" parent="1" vertex="1">
          <mxGeometry x="160" y="75" width="100" height="20" as="geometry" />
        </mxCell>
        <mxCell id="lFroKfWNAPlT9c4xP5ak-102" value="" style="endArrow=none;html=1;rounded=1;exitX=1;exitY=0.5;exitDx=0;exitDy=0;strokeColor=#5e616d;strokeWidth=2;" parent="1" source="lFroKfWNAPlT9c4xP5ak-36" edge="1">
          <mxGeometry width="50" height="50" relative="1" as="geometry">
            <mxPoint x="350" y="95" as="sourcePoint" />
            <mxPoint x="320" y="85" as="targetPoint" />
          </mxGeometry>
        </mxCell>
        <mxCell id="lFroKfWNAPlT9c4xP5ak-103" value="" style="endArrow=none;html=1;rounded=1;exitX=1;exitY=0.5;exitDx=0;exitDy=0;strokeColor=#5e616d;strokeWidth=2;" parent="1" edge="1">
          <mxGeometry width="50" height="50" relative="1" as="geometry">
            <mxPoint x="280" y="134.69" as="sourcePoint" />
            <mxPoint x="320" y="134.69" as="targetPoint" />
          </mxGeometry>
        </mxCell>
        <mxCell id="lFroKfWNAPlT9c4xP5ak-104" value="" style="endArrow=none;html=1;rounded=1;exitX=1;exitY=0.5;exitDx=0;exitDy=0;strokeColor=#5e616d;strokeWidth=2;" parent="1" edge="1">
          <mxGeometry width="50" height="50" relative="1" as="geometry">
            <mxPoint x="280" y="184.69" as="sourcePoint" />
            <mxPoint x="320" y="184.69" as="targetPoint" />
          </mxGeometry>
        </mxCell>
        <mxCell id="lFroKfWNAPlT9c4xP5ak-105" value="" style="endArrow=none;html=1;rounded=1;exitX=1;exitY=0.5;exitDx=0;exitDy=0;strokeColor=#5e616d;strokeWidth=2;" parent="1" edge="1">
          <mxGeometry width="50" height="50" relative="1" as="geometry">
            <mxPoint x="280" y="234.69" as="sourcePoint" />
            <mxPoint x="320" y="234.69" as="targetPoint" />
          </mxGeometry>
        </mxCell>
        <mxCell id="lFroKfWNAPlT9c4xP5ak-106" value="" style="endArrow=none;html=1;rounded=1;exitX=1;exitY=0.5;exitDx=0;exitDy=0;strokeColor=#5e616d;strokeWidth=2;" parent="1" edge="1">
          <mxGeometry width="50" height="50" relative="1" as="geometry">
            <mxPoint x="280" y="284.69" as="sourcePoint" />
            <mxPoint x="320" y="284.69" as="targetPoint" />
          </mxGeometry>
        </mxCell>
        <mxCell id="lFroKfWNAPlT9c4xP5ak-107" value="" style="endArrow=none;html=1;rounded=1;exitX=1;exitY=0.5;exitDx=0;exitDy=0;strokeColor=#5e616d;strokeWidth=2;" parent="1" edge="1">
          <mxGeometry width="50" height="50" relative="1" as="geometry">
            <mxPoint x="280" y="334.69" as="sourcePoint" />
            <mxPoint x="320" y="334.69" as="targetPoint" />
          </mxGeometry>
        </mxCell>
        <mxCell id="lFroKfWNAPlT9c4xP5ak-108" value="" style="endArrow=none;html=1;rounded=1;exitX=1;exitY=0.5;exitDx=0;exitDy=0;strokeColor=#5e616d;strokeWidth=2;" parent="1" edge="1">
          <mxGeometry width="50" height="50" relative="1" as="geometry">
            <mxPoint x="280" y="384.69" as="sourcePoint" />
            <mxPoint x="320" y="384.69" as="targetPoint" />
          </mxGeometry>
        </mxCell>
        <mxCell id="lFroKfWNAPlT9c4xP5ak-109" value="" style="endArrow=none;html=1;rounded=1;exitX=1;exitY=0.5;exitDx=0;exitDy=0;strokeColor=#5e616d;strokeWidth=2;" parent="1" edge="1">
          <mxGeometry width="50" height="50" relative="1" as="geometry">
            <mxPoint x="280" y="434.69" as="sourcePoint" />
            <mxPoint x="320" y="434.69" as="targetPoint" />
          </mxGeometry>
        </mxCell>
        <mxCell id="lFroKfWNAPlT9c4xP5ak-110" value="" style="endArrow=none;html=1;rounded=1;exitX=1;exitY=0.5;exitDx=0;exitDy=0;strokeColor=#5e616d;strokeWidth=2;" parent="1" edge="1">
          <mxGeometry width="50" height="50" relative="1" as="geometry">
            <mxPoint x="280" y="484.69" as="sourcePoint" />
            <mxPoint x="320" y="484.69" as="targetPoint" />
          </mxGeometry>
        </mxCell>
        <mxCell id="lFroKfWNAPlT9c4xP5ak-111" value="" style="endArrow=none;html=1;rounded=1;exitX=1;exitY=0.5;exitDx=0;exitDy=0;strokeColor=#5e616d;strokeWidth=2;" parent="1" edge="1">
          <mxGeometry width="50" height="50" relative="1" as="geometry">
            <mxPoint x="280" y="534.69" as="sourcePoint" />
            <mxPoint x="320" y="534.69" as="targetPoint" />
          </mxGeometry>
        </mxCell>
        <mxCell id="lFroKfWNAPlT9c4xP5ak-112" value="" style="endArrow=none;html=1;rounded=1;exitX=1;exitY=0.5;exitDx=0;exitDy=0;strokeColor=#5e616d;strokeWidth=2;" parent="1" edge="1">
          <mxGeometry width="50" height="50" relative="1" as="geometry">
            <mxPoint x="280" y="589.19" as="sourcePoint" />
            <mxPoint x="320" y="589.19" as="targetPoint" />
          </mxGeometry>
        </mxCell>
        <mxCell id="lFroKfWNAPlT9c4xP5ak-113" value="" style="endArrow=none;html=1;rounded=1;exitX=1;exitY=0.5;exitDx=0;exitDy=0;strokeColor=#5e616d;strokeWidth=2;" parent="1" edge="1">
          <mxGeometry width="50" height="50" relative="1" as="geometry">
            <mxPoint x="280" y="639.19" as="sourcePoint" />
            <mxPoint x="320" y="639.19" as="targetPoint" />
          </mxGeometry>
        </mxCell>
        <mxCell id="lFroKfWNAPlT9c4xP5ak-114" value="" style="endArrow=none;html=1;rounded=1;exitX=1;exitY=0.5;exitDx=0;exitDy=0;strokeColor=#5e616d;strokeWidth=2;" parent="1" edge="1">
          <mxGeometry width="50" height="50" relative="1" as="geometry">
            <mxPoint x="280" y="689.19" as="sourcePoint" />
            <mxPoint x="320" y="689.19" as="targetPoint" />
          </mxGeometry>
        </mxCell>
        <mxCell id="lFroKfWNAPlT9c4xP5ak-115" value="" style="endArrow=none;html=1;rounded=1;exitX=1;exitY=0.5;exitDx=0;exitDy=0;strokeColor=#5e616d;strokeWidth=2;" parent="1" edge="1">
          <mxGeometry width="50" height="50" relative="1" as="geometry">
            <mxPoint x="280" y="739.19" as="sourcePoint" />
            <mxPoint x="320" y="739.19" as="targetPoint" />
          </mxGeometry>
        </mxCell>
        <mxCell id="lFroKfWNAPlT9c4xP5ak-116" value="" style="endArrow=none;html=1;rounded=1;exitX=1;exitY=0.5;exitDx=0;exitDy=0;strokeColor=#5e616d;strokeWidth=2;" parent="1" edge="1">
          <mxGeometry width="50" height="50" relative="1" as="geometry">
            <mxPoint x="280" y="789.19" as="sourcePoint" />
            <mxPoint x="320" y="789.19" as="targetPoint" />
          </mxGeometry>
        </mxCell>
        <mxCell id="lFroKfWNAPlT9c4xP5ak-117" value="" style="endArrow=none;html=1;rounded=1;exitX=1;exitY=0.5;exitDx=0;exitDy=0;strokeColor=#5e616d;strokeWidth=2;" parent="1" edge="1">
          <mxGeometry width="50" height="50" relative="1" as="geometry">
            <mxPoint x="280" y="839.19" as="sourcePoint" />
            <mxPoint x="320" y="839.19" as="targetPoint" />
          </mxGeometry>
        </mxCell>
        <mxCell id="lFroKfWNAPlT9c4xP5ak-118" value="" style="endArrow=none;html=1;rounded=1;exitX=1;exitY=0.5;exitDx=0;exitDy=0;strokeColor=#5e616d;strokeWidth=2;" parent="1" edge="1">
          <mxGeometry width="50" height="50" relative="1" as="geometry">
            <mxPoint x="280" y="889.19" as="sourcePoint" />
            <mxPoint x="320" y="889.19" as="targetPoint" />
          </mxGeometry>
        </mxCell>
        <mxCell id="lFroKfWNAPlT9c4xP5ak-119" value="" style="endArrow=none;html=1;rounded=1;exitX=1;exitY=0.5;exitDx=0;exitDy=0;strokeColor=#5e616d;strokeWidth=2;" parent="1" edge="1">
          <mxGeometry width="50" height="50" relative="1" as="geometry">
            <mxPoint x="280" y="939.19" as="sourcePoint" />
            <mxPoint x="320" y="939.19" as="targetPoint" />
          </mxGeometry>
        </mxCell>
        <mxCell id="lFroKfWNAPlT9c4xP5ak-120" value="" style="endArrow=none;html=1;rounded=1;exitX=1;exitY=0.5;exitDx=0;exitDy=0;strokeColor=#5e616d;strokeWidth=2;" parent="1" edge="1">
          <mxGeometry width="50" height="50" relative="1" as="geometry">
            <mxPoint x="280" y="989.19" as="sourcePoint" />
            <mxPoint x="320" y="989.19" as="targetPoint" />
          </mxGeometry>
        </mxCell>
        <mxCell id="lFroKfWNAPlT9c4xP5ak-121" value="" style="endArrow=none;html=1;rounded=1;exitX=1;exitY=0.5;exitDx=0;exitDy=0;strokeColor=#5e616d;strokeWidth=2;" parent="1" edge="1">
          <mxGeometry width="50" height="50" relative="1" as="geometry">
            <mxPoint x="280" y="1039.19" as="sourcePoint" />
            <mxPoint x="320" y="1039.19" as="targetPoint" />
          </mxGeometry>
        </mxCell>
        <mxCell id="lFroKfWNAPlT9c4xP5ak-122" value="&lt;span style=&quot;font-size: 14px;&quot;&gt;&lt;i&gt;1903&lt;/i&gt;&lt;/span&gt;&lt;i style=&quot;border-color: var(--border-color); font-size: 14px;&quot;&gt;年&lt;/i&gt;" style="text;strokeColor=none;fillColor=none;html=1;fontSize=7;fontStyle=0;verticalAlign=middle;align=center;fontFamily=Comic Sans MS;" parent="1" vertex="1">
          <mxGeometry x="160" y="125" width="100" height="20" as="geometry" />
        </mxCell>
        <mxCell id="lFroKfWNAPlT9c4xP5ak-123" value="&lt;span style=&quot;font-size: 14px;&quot;&gt;&lt;i&gt;1905&lt;/i&gt;&lt;/span&gt;&lt;i style=&quot;border-color: var(--border-color); font-size: 14px;&quot;&gt;年&lt;/i&gt;" style="text;strokeColor=none;fillColor=none;html=1;fontSize=7;fontStyle=0;verticalAlign=middle;align=center;fontFamily=Comic Sans MS;" parent="1" vertex="1">
          <mxGeometry x="160" y="175" width="100" height="20" as="geometry" />
        </mxCell>
        <mxCell id="lFroKfWNAPlT9c4xP5ak-124" value="&lt;span style=&quot;font-size: 14px;&quot;&gt;&lt;i&gt;1906&lt;/i&gt;&lt;/span&gt;&lt;i style=&quot;border-color: var(--border-color); font-size: 14px;&quot;&gt;年&lt;/i&gt;" style="text;strokeColor=none;fillColor=none;html=1;fontSize=7;fontStyle=0;verticalAlign=middle;align=center;fontFamily=Comic Sans MS;" parent="1" vertex="1">
          <mxGeometry x="160" y="225" width="100" height="20" as="geometry" />
        </mxCell>
        <mxCell id="lFroKfWNAPlT9c4xP5ak-125" value="&lt;span style=&quot;font-size: 14px;&quot;&gt;&lt;i&gt;1909&lt;/i&gt;&lt;/span&gt;&lt;i style=&quot;border-color: var(--border-color); font-size: 14px;&quot;&gt;年&lt;/i&gt;" style="text;strokeColor=none;fillColor=none;html=1;fontSize=7;fontStyle=0;verticalAlign=middle;align=center;fontFamily=Comic Sans MS;" parent="1" vertex="1">
          <mxGeometry x="160" y="275" width="100" height="20" as="geometry" />
        </mxCell>
        <mxCell id="lFroKfWNAPlT9c4xP5ak-126" value="&lt;span style=&quot;font-size: 14px;&quot;&gt;&lt;i&gt;1909-1917&lt;/i&gt;&lt;/span&gt;&lt;i style=&quot;border-color: var(--border-color); font-size: 14px;&quot;&gt;年&lt;/i&gt;" style="text;strokeColor=none;fillColor=none;html=1;fontSize=7;fontStyle=0;verticalAlign=middle;align=center;fontFamily=Comic Sans MS;" parent="1" vertex="1">
          <mxGeometry x="160" y="325" width="100" height="20" as="geometry" />
        </mxCell>
        <mxCell id="lFroKfWNAPlT9c4xP5ak-127" value="&lt;span style=&quot;font-size: 14px;&quot;&gt;&lt;i&gt;1910&lt;/i&gt;&lt;/span&gt;&lt;i style=&quot;border-color: var(--border-color); font-size: 14px;&quot;&gt;年&lt;/i&gt;" style="text;strokeColor=none;fillColor=none;html=1;fontSize=7;fontStyle=0;verticalAlign=middle;align=center;fontFamily=Comic Sans MS;" parent="1" vertex="1">
          <mxGeometry x="160" y="374.5" width="100" height="20" as="geometry" />
        </mxCell>
        <mxCell id="lFroKfWNAPlT9c4xP5ak-128" value="&lt;span style=&quot;font-size: 14px;&quot;&gt;&lt;i&gt;1911&lt;/i&gt;&lt;/span&gt;&lt;i style=&quot;border-color: var(--border-color); font-size: 14px;&quot;&gt;年&lt;/i&gt;" style="text;strokeColor=none;fillColor=none;html=1;fontSize=7;fontStyle=0;verticalAlign=middle;align=center;fontFamily=Comic Sans MS;" parent="1" vertex="1">
          <mxGeometry x="160" y="424.5" width="100" height="20" as="geometry" />
        </mxCell>
        <mxCell id="lFroKfWNAPlT9c4xP5ak-129" value="&lt;span style=&quot;font-size: 14px;&quot;&gt;&lt;i&gt;1913&lt;/i&gt;&lt;/span&gt;&lt;i style=&quot;border-color: var(--border-color); font-size: 14px;&quot;&gt;年&lt;/i&gt;" style="text;strokeColor=none;fillColor=none;html=1;fontSize=7;fontStyle=0;verticalAlign=middle;align=center;fontFamily=Comic Sans MS;" parent="1" vertex="1">
          <mxGeometry x="160" y="474.5" width="100" height="20" as="geometry" />
        </mxCell>
        <mxCell id="lFroKfWNAPlT9c4xP5ak-130" value="&lt;span style=&quot;font-size: 14px;&quot;&gt;&lt;i&gt;1915&lt;/i&gt;&lt;/span&gt;&lt;i style=&quot;border-color: var(--border-color); font-size: 14px;&quot;&gt;年&lt;/i&gt;" style="text;strokeColor=none;fillColor=none;html=1;fontSize=7;fontStyle=0;verticalAlign=middle;align=center;fontFamily=Comic Sans MS;" parent="1" vertex="1">
          <mxGeometry x="160" y="524.5" width="100" height="20" as="geometry" />
        </mxCell>
        <mxCell id="lFroKfWNAPlT9c4xP5ak-131" value="&lt;span style=&quot;font-size: 14px;&quot;&gt;&lt;i&gt;1921&lt;/i&gt;&lt;/span&gt;&lt;i style=&quot;border-color: var(--border-color); font-size: 14px;&quot;&gt;年&lt;/i&gt;" style="text;strokeColor=none;fillColor=none;html=1;fontSize=7;fontStyle=0;verticalAlign=middle;align=center;fontFamily=Comic Sans MS;" parent="1" vertex="1">
          <mxGeometry x="145" y="579.5" width="130" height="20" as="geometry" />
        </mxCell>
        <mxCell id="lFroKfWNAPlT9c4xP5ak-132" value="&lt;span style=&quot;font-size: 14px;&quot;&gt;&lt;i&gt;1925&lt;/i&gt;&lt;/span&gt;&lt;i style=&quot;border-color: var(--border-color); font-size: 14px;&quot;&gt;年&lt;/i&gt;" style="text;strokeColor=none;fillColor=none;html=1;fontSize=7;fontStyle=0;verticalAlign=middle;align=center;fontFamily=Comic Sans MS;" parent="1" vertex="1">
          <mxGeometry x="160" y="629.5" width="100" height="20" as="geometry" />
        </mxCell>
        <mxCell id="lFroKfWNAPlT9c4xP5ak-133" value="&lt;span style=&quot;font-size: 14px;&quot;&gt;&lt;i&gt;1926&lt;/i&gt;&lt;/span&gt;&lt;i style=&quot;border-color: var(--border-color); font-size: 14px;&quot;&gt;年&lt;/i&gt;" style="text;strokeColor=none;fillColor=none;html=1;fontSize=7;fontStyle=0;verticalAlign=middle;align=center;fontFamily=Comic Sans MS;" parent="1" vertex="1">
          <mxGeometry x="160" y="679.75" width="100" height="20" as="geometry" />
        </mxCell>
        <mxCell id="lFroKfWNAPlT9c4xP5ak-134" value="&lt;span style=&quot;font-size: 14px;&quot;&gt;&lt;i&gt;1928&lt;/i&gt;&lt;/span&gt;&lt;i style=&quot;border-color: var(--border-color); font-size: 14px;&quot;&gt;年&lt;/i&gt;" style="text;strokeColor=none;fillColor=none;html=1;fontSize=7;fontStyle=0;verticalAlign=middle;align=center;fontFamily=Comic Sans MS;" parent="1" vertex="1">
          <mxGeometry x="160" y="729.75" width="100" height="20" as="geometry" />
        </mxCell>
        <mxCell id="lFroKfWNAPlT9c4xP5ak-135" value="&lt;span style=&quot;font-size: 14px;&quot;&gt;&lt;i&gt;1929&lt;/i&gt;&lt;/span&gt;&lt;i style=&quot;border-color: var(--border-color); font-size: 14px;&quot;&gt;年&lt;/i&gt;" style="text;strokeColor=none;fillColor=none;html=1;fontSize=7;fontStyle=0;verticalAlign=middle;align=center;fontFamily=Comic Sans MS;" parent="1" vertex="1">
          <mxGeometry x="160" y="779.5" width="100" height="20" as="geometry" />
        </mxCell>
        <mxCell id="lFroKfWNAPlT9c4xP5ak-136" value="&lt;span style=&quot;font-size: 14px;&quot;&gt;&lt;i&gt;1930&lt;/i&gt;&lt;/span&gt;&lt;i style=&quot;border-color: var(--border-color); font-size: 14px;&quot;&gt;年&lt;/i&gt;" style="text;strokeColor=none;fillColor=none;html=1;fontSize=7;fontStyle=0;verticalAlign=middle;align=center;fontFamily=Comic Sans MS;" parent="1" vertex="1">
          <mxGeometry x="160" y="829.75" width="100" height="20" as="geometry" />
        </mxCell>
        <mxCell id="lFroKfWNAPlT9c4xP5ak-137" value="&lt;span style=&quot;font-size: 14px;&quot;&gt;&lt;i&gt;1932&lt;/i&gt;&lt;/span&gt;&lt;i style=&quot;border-color: var(--border-color); font-size: 14px;&quot;&gt;年&lt;/i&gt;" style="text;strokeColor=none;fillColor=none;html=1;fontSize=7;fontStyle=0;verticalAlign=middle;align=center;fontFamily=Comic Sans MS;" parent="1" vertex="1">
          <mxGeometry x="160" y="879.75" width="100" height="20" as="geometry" />
        </mxCell>
        <mxCell id="lFroKfWNAPlT9c4xP5ak-138" value="&lt;span style=&quot;font-size: 14px;&quot;&gt;&lt;i&gt;1935&lt;/i&gt;&lt;/span&gt;&lt;i style=&quot;border-color: var(--border-color); font-size: 14px;&quot;&gt;年&lt;/i&gt;" style="text;strokeColor=none;fillColor=none;html=1;fontSize=7;fontStyle=0;verticalAlign=middle;align=center;fontFamily=Comic Sans MS;" parent="1" vertex="1">
          <mxGeometry x="160" y="929.5" width="100" height="20" as="geometry" />
        </mxCell>
        <mxCell id="lFroKfWNAPlT9c4xP5ak-139" value="&lt;span style=&quot;font-size: 14px;&quot;&gt;&lt;i&gt;1938&lt;/i&gt;&lt;/span&gt;&lt;i style=&quot;border-color: var(--border-color); font-size: 14px;&quot;&gt;年&lt;/i&gt;" style="text;strokeColor=none;fillColor=none;html=1;fontSize=7;fontStyle=0;verticalAlign=middle;align=center;fontFamily=Comic Sans MS;" parent="1" vertex="1">
          <mxGeometry x="160" y="979.25" width="100" height="20" as="geometry" />
        </mxCell>
        <mxCell id="lFroKfWNAPlT9c4xP5ak-140" value="&lt;span style=&quot;font-size: 14px;&quot;&gt;&lt;i&gt;1939&lt;/i&gt;&lt;/span&gt;&lt;i style=&quot;border-color: var(--border-color); font-size: 14px;&quot;&gt;年&lt;/i&gt;" style="text;strokeColor=none;fillColor=none;html=1;fontSize=7;fontStyle=0;verticalAlign=middle;align=center;fontFamily=Comic Sans MS;" parent="1" vertex="1">
          <mxGeometry x="160" y="1029.5" width="100" height="20" as="geometry" />
        </mxCell>
        <mxCell id="lFroKfWNAPlT9c4xP5ak-141" value="&lt;font face=&quot;Times New Roman&quot;&gt;德国普朗克提出量子假说；&lt;br&gt;荷兰的佛利斯等重新发现孟德尔遗传原理；&lt;br&gt;美国兰德斯坦纳确定人类血型；&lt;br&gt;德国齐柏林发明飞艇&lt;/font&gt;" style="text;html=1;strokeColor=none;fillColor=none;align=left;verticalAlign=middle;whiteSpace=wrap;rounded=0;" parent="1" vertex="1">
          <mxGeometry x="330" y="75" width="380" height="20" as="geometry" />
        </mxCell>
        <mxCell id="lFroKfWNAPlT9c4xP5ak-142" value="&lt;font face=&quot;Times New Roman&quot;&gt;美国莱特兄弟螺旋桨飞机试飞成功；&lt;br&gt;英国卢瑟福证实α射线是带正电的氦核，β射线是高速电子流，并提出放射线元素蜕变理论&lt;/font&gt;" style="text;html=1;strokeColor=none;fillColor=none;align=left;verticalAlign=middle;whiteSpace=wrap;rounded=0;" parent="1" vertex="1">
          <mxGeometry x="330" y="125" width="480" height="20" as="geometry" />
        </mxCell>
        <mxCell id="lFroKfWNAPlT9c4xP5ak-143" value="&lt;font face=&quot;Times New Roman&quot;&gt;瑞士爱因斯坦发表光量子假说，提出狭义相对论&lt;/font&gt;" style="text;html=1;strokeColor=none;fillColor=none;align=left;verticalAlign=middle;whiteSpace=wrap;rounded=0;" parent="1" vertex="1">
          <mxGeometry x="330" y="175" width="360" height="20" as="geometry" />
        </mxCell>
        <mxCell id="lFroKfWNAPlT9c4xP5ak-144" value="&lt;font face=&quot;Times New Roman&quot;&gt;德国能斯脱提出关于绝对零度不可能达到的原理（热力学第三定律）&lt;/font&gt;" style="text;html=1;strokeColor=none;fillColor=none;align=left;verticalAlign=middle;whiteSpace=wrap;rounded=0;" parent="1" vertex="1">
          <mxGeometry x="330" y="225" width="380" height="20" as="geometry" />
        </mxCell>
        <mxCell id="lFroKfWNAPlT9c4xP5ak-145" value="丹麦约翰逊提出基因是遗传单位；&lt;br&gt;南斯拉夫莫洛维奇发现地壳与地幔之间的莫霍面" style="text;html=1;strokeColor=none;fillColor=none;align=left;verticalAlign=middle;whiteSpace=wrap;rounded=0;" parent="1" vertex="1">
          <mxGeometry x="330" y="275" width="400" height="20" as="geometry" />
        </mxCell>
        <mxCell id="lFroKfWNAPlT9c4xP5ak-146" value="&lt;font face=&quot;Times New Roman&quot;&gt;美国密立根精确测定电子电荷&lt;/font&gt;" style="text;html=1;strokeColor=none;fillColor=none;align=left;verticalAlign=middle;whiteSpace=wrap;rounded=0;" parent="1" vertex="1">
          <mxGeometry x="330" y="325" width="300" height="20" as="geometry" />
        </mxCell>
        <mxCell id="lFroKfWNAPlT9c4xP5ak-147" value="&lt;font face=&quot;Times New Roman&quot;&gt;英国索迪提出同位素假说；&lt;br&gt;美国摩尔根进行果蝇的遗传研究&lt;/font&gt;" style="text;html=1;strokeColor=none;fillColor=none;align=left;verticalAlign=middle;whiteSpace=wrap;rounded=0;" parent="1" vertex="1">
          <mxGeometry x="330" y="375" width="310" height="20" as="geometry" />
        </mxCell>
        <mxCell id="lFroKfWNAPlT9c4xP5ak-148" value="&lt;font face=&quot;Times New Roman&quot;&gt;英国卢瑟福提出原子的行星模型；&lt;br&gt;奥地利赫斯发现宇宙射线；&lt;br&gt;昂纳斯发现超导现象&lt;/font&gt;" style="text;html=1;strokeColor=none;fillColor=none;align=left;verticalAlign=middle;whiteSpace=wrap;rounded=0;" parent="1" vertex="1">
          <mxGeometry x="330" y="425" width="290" height="20" as="geometry" />
        </mxCell>
        <mxCell id="lFroKfWNAPlT9c4xP5ak-149" value="丹麦波尔提出原子结构的量子化轨道理论；&lt;br&gt;美国吕勃发现人工单性生殖" style="text;html=1;strokeColor=none;fillColor=none;align=left;verticalAlign=middle;whiteSpace=wrap;rounded=0;" parent="1" vertex="1">
          <mxGeometry x="330" y="475" width="260" height="20" as="geometry" />
        </mxCell>
        <mxCell id="lFroKfWNAPlT9c4xP5ak-150" value="&lt;font face=&quot;Times New Roman&quot;&gt;爱因斯坦创建广义相对论&lt;/font&gt;" style="text;html=1;strokeColor=none;fillColor=none;align=left;verticalAlign=middle;whiteSpace=wrap;rounded=0;" parent="1" vertex="1">
          <mxGeometry x="330" y="525" width="340" height="20" as="geometry" />
        </mxCell>
        <mxCell id="lFroKfWNAPlT9c4xP5ak-151" value="&lt;font face=&quot;Times New Roman&quot;&gt;奥地利洛伊发现神经冲动的化学介质&lt;/font&gt;" style="text;html=1;strokeColor=none;fillColor=none;align=left;verticalAlign=middle;whiteSpace=wrap;rounded=0;" parent="1" vertex="1">
          <mxGeometry x="330" y="579.5" width="270" height="20" as="geometry" />
        </mxCell>
        <mxCell id="lFroKfWNAPlT9c4xP5ak-153" value="奥地利泡利提出泡利不相容原理；&lt;br&gt;德国诺达克发现化学元素铼是为周期表上最后一个稳定元素；&lt;br&gt;中国蔡翘发现蔡氏核及蔡氏神经核区" style="text;html=1;strokeColor=none;fillColor=none;align=left;verticalAlign=middle;whiteSpace=wrap;rounded=0;" parent="1" vertex="1">
          <mxGeometry x="330" y="629.5" width="420" height="20" as="geometry" />
        </mxCell>
        <mxCell id="lFroKfWNAPlT9c4xP5ak-154" value="&lt;font face=&quot;Times New Roman&quot;&gt;意大利费米发现电子服从的统计法则；&lt;br&gt;美国戈达德成功发射以液氧和汽油为推进剂的火箭；&lt;br&gt;奥地利薛定谔建立量子力学的波动方程&lt;/font&gt;" style="text;html=1;strokeColor=none;fillColor=none;align=left;verticalAlign=middle;whiteSpace=wrap;rounded=0;" parent="1" vertex="1">
          <mxGeometry x="330" y="679.5" width="380" height="20" as="geometry" />
        </mxCell>
        <mxCell id="lFroKfWNAPlT9c4xP5ak-155" value="&lt;font face=&quot;Times New Roman&quot;&gt;英国弗莱明发明青霉素&lt;/font&gt;" style="text;html=1;strokeColor=none;fillColor=none;align=left;verticalAlign=middle;whiteSpace=wrap;rounded=0;" parent="1" vertex="1">
          <mxGeometry x="330" y="729.5" width="440" height="20" as="geometry" />
        </mxCell>
        <mxCell id="lFroKfWNAPlT9c4xP5ak-156" value="&lt;font face=&quot;Times New Roman&quot;&gt;爱因斯坦提出电磁场及引力场的统一理论；&lt;br&gt;中国李四光提出了地质力学原理&lt;/font&gt;" style="text;html=1;strokeColor=none;fillColor=none;align=left;verticalAlign=middle;whiteSpace=wrap;rounded=0;" parent="1" vertex="1">
          <mxGeometry x="330" y="779.5" width="390" height="20" as="geometry" />
        </mxCell>
        <mxCell id="lFroKfWNAPlT9c4xP5ak-157" value="&lt;font face=&quot;Times New Roman&quot;&gt;美国劳伦斯发明回旋加速器；&lt;br&gt;苏联亚历山大洛夫创立拓扑学说&lt;/font&gt;" style="text;html=1;strokeColor=none;fillColor=none;align=left;verticalAlign=middle;whiteSpace=wrap;rounded=0;" parent="1" vertex="1">
          <mxGeometry x="330" y="829.5" width="290" height="20" as="geometry" />
        </mxCell>
        <mxCell id="lFroKfWNAPlT9c4xP5ak-158" value="&lt;font face=&quot;Times New Roman&quot;&gt;美国安德森发现反粒子——正电子；&lt;br&gt;英国查德威克发现中子；&lt;br&gt;英国布拉凯特等发现宇宙射线中有正负电子对产生，以及电子簇射现象&lt;/font&gt;" style="text;html=1;strokeColor=none;fillColor=none;align=left;verticalAlign=middle;whiteSpace=wrap;rounded=0;" parent="1" vertex="1">
          <mxGeometry x="330" y="879.5" width="400" height="20" as="geometry" />
        </mxCell>
        <mxCell id="lFroKfWNAPlT9c4xP5ak-159" value="&lt;font face=&quot;Times New Roman&quot;&gt;英国图灵提出图灵机&lt;/font&gt;" style="text;html=1;strokeColor=none;fillColor=none;align=left;verticalAlign=middle;whiteSpace=wrap;rounded=0;" parent="1" vertex="1">
          <mxGeometry x="330" y="929.5" width="340" height="20" as="geometry" />
        </mxCell>
        <mxCell id="lFroKfWNAPlT9c4xP5ak-160" value="&lt;font face=&quot;Times New Roman&quot;&gt;美国贝特提出太阳与恒星的热核反应机制；&lt;br&gt;德国哈恩发现核裂变现象&lt;/font&gt;" style="text;html=1;strokeColor=none;fillColor=none;align=left;verticalAlign=middle;whiteSpace=wrap;rounded=0;" parent="1" vertex="1">
          <mxGeometry x="330" y="979.5" width="380" height="20" as="geometry" />
        </mxCell>
        <mxCell id="lFroKfWNAPlT9c4xP5ak-161" value="&lt;font face=&quot;Times New Roman&quot;&gt;波尔、美国惠勒提出原子核裂变理论；&lt;br&gt;法国约里奥-居里等发现核裂变式释放中子使链式反应得以进行&lt;/font&gt;" style="text;html=1;strokeColor=none;fillColor=none;align=left;verticalAlign=middle;whiteSpace=wrap;rounded=0;" parent="1" vertex="1">
          <mxGeometry x="330" y="1029.5" width="340" height="20" as="geometry" />
        </mxCell>
      </root>
    </mxGraphModel>
  </diagram>
</mxfile>
